{
	"asset":{
		"generator":"Khronos glTF Blender I/O v4.2.83",
		"version":"2.0"
	},
	"scene":0,
	"scenes":[
		{
			"name":"Scene",
			"nodes":[
				0
			]
		}
	],
	"nodes":[
		{
			"mesh":0,
			"name":"Icosphere.005"
		}
	],
	"meshes":[
		{
			"name":"Icosphere.005",
			"primitives":[
				{
					"attributes":{
						"POSITION":0,
						"NORMAL":1,
						"TEXCOORD_0":2
					},
					"indices":3
				}
			]
		}
	],
	"accessors":[
		{
			"bufferView":0,
			"componentType":5126,
			"count":51450,
			"max":[
				5.593865394592285,
				4.821722507476807,
				5.593865394592285
			],
			"min":[
				-5.593865394592285,
				-4.821722507476807,
				-5.593865394592285
			],
			"type":"VEC3"
		},
		{
			"bufferView":1,
			"componentType":5126,
			"count":51450,
			"type":"VEC3"
		},
		{
			"bufferView":2,
			"componentType":5126,
			"count":51450,
			"type":"VEC2"
		},
		{
			"bufferView":3,
			"componentType":5123,
			"count":111132,
			"type":"SCALAR"
		}
	],
	"bufferViews":[
		{
			"buffer":0,
			"byteLength":617400,
			"byteOffset":0,
			"target":34962
		},
		{
			"buffer":0,
			"byteLength":617400,
			"byteOffset":617400,
			"target":34962
		},
		{
			"buffer":0,
			"byteLength":411600,
			"byteOffset":1234800,
			"target":34962
		},
		{
			"buffer":0,
			"byteLength":222264,
			"byteOffset":1646400,
			"target":34963
		}
	],
	"buffers":[
		{
			"byteLength":1868664,
			"uri":"bg-static.bin"
		}
	]
}
