{
	"asset":{
		"generator":"Khronos glTF Blender I/O v4.2.83",
		"version":"2.0"
	},
	"scene":0,
	"scenes":[
		{
			"name":"Scene",
			"nodes":[
				0
			]
		}
	],
	"nodes":[
		{
			"mesh":0,
			"name":"Icosphere.007"
		}
	],
	"meshes":[
		{
			"name":"Icosphere.007",
			"primitives":[
				{
					"attributes":{
						"POSITION":0,
						"NORMAL":1,
						"TEXCOORD_0":2
					},
					"indices":3
				}
			]
		}
	],
	"accessors":[
		{
			"bufferView":0,
			"componentType":5126,
			"count":54194,
			"max":[
				12.992746353149414,
				11.187603950500488,
				12.992746353149414
			],
			"min":[
				-12.992746353149414,
				-11.187602043151855,
				-12.992746353149414
			],
			"type":"VEC3"
		},
		{
			"bufferView":1,
			"componentType":5126,
			"count":54194,
			"type":"VEC3"
		},
		{
			"bufferView":2,
			"componentType":5126,
			"count":54194,
			"type":"VEC2"
		},
		{
			"bufferView":3,
			"componentType":5123,
			"count":111132,
			"type":"SCALAR"
		}
	],
	"bufferViews":[
		{
			"buffer":0,
			"byteLength":650328,
			"byteOffset":0,
			"target":34962
		},
		{
			"buffer":0,
			"byteLength":650328,
			"byteOffset":650328,
			"target":34962
		},
		{
			"buffer":0,
			"byteLength":433552,
			"byteOffset":1300656,
			"target":34962
		},
		{
			"buffer":0,
			"byteLength":222264,
			"byteOffset":1734208,
			"target":34963
		}
	],
	"buffers":[
		{
			"byteLength":1956472,
			"uri":"bg-static.bin"
		}
	]
}
