{
	"asset":{
		"generator":"Khronos glTF Blender I/O v3.6.27",
		"version":"2.0"
	},
	"scene":0,
	"scenes":[
		{
			"name":"Scene",
			"nodes":[
				0,
				1,
				2
			]
		}
	],
	"nodes":[
		{
			"mesh":0,
			"name":"StreetLightCover.001"
		},
		{
			"mesh":1,
			"name":"StreetLightBulb.001"
		},
		{
			"mesh":2,
			"name":"StreetLightBody.001"
		}
	],
	"materials":[
		{
			"doubleSided":true,
			"name":"StreetLightCover",
			"pbrMetallicRoughness":{
				"baseColorFactor":[
					0.8000000715255737,
					0.178208127617836,
					0.178208127617836,
					1
				],
				"metallicFactor":0,
				"roughnessFactor":0.5
			}
		},
		{
			"doubleSided":true,
			"name":"StreetLightBulb",
			"pbrMetallicRoughness":{
				"baseColorFactor":[
					0.7805631160736084,
					0.8000000715255737,
					0.06568038463592529,
					1
				],
				"metallicFactor":0,
				"roughnessFactor":0.5
			}
		},
		{
			"doubleSided":true,
			"name":"StreetLightBody",
			"pbrMetallicRoughness":{
				"baseColorFactor":[
					0.13047845661640167,
					0.09361818432807922,
					0.8000000715255737,
					1
				],
				"metallicFactor":0,
				"roughnessFactor":0.5
			}
		}
	],
	"meshes":[
		{
			"name":"Cube.010",
			"primitives":[
				{
					"attributes":{
						"POSITION":0,
						"NORMAL":1,
						"TEXCOORD_0":2
					},
					"indices":3,
					"material":0
				}
			]
		},
		{
			"name":"Cube.011",
			"primitives":[
				{
					"attributes":{
						"POSITION":4,
						"NORMAL":5,
						"TEXCOORD_0":6
					},
					"indices":7,
					"material":1
				}
			]
		},
		{
			"name":"BezierCurve.002",
			"primitives":[
				{
					"attributes":{
						"POSITION":8,
						"NORMAL":9,
						"TEXCOORD_0":10
					},
					"indices":11,
					"material":2
				}
			]
		}
	],
	"accessors":[
		{
			"bufferView":0,
			"componentType":5126,
			"count":1088,
			"max":[
				-0.5013194680213928,
				4.0731048583984375,
				0.10749416798353195
			],
			"min":[
				-1.0940488576889038,
				3.7761716842651367,
				-0.10719047486782074
			],
			"type":"VEC3"
		},
		{
			"bufferView":1,
			"componentType":5126,
			"count":1088,
			"type":"VEC3"
		},
		{
			"bufferView":2,
			"componentType":5126,
			"count":1088,
			"type":"VEC2"
		},
		{
			"bufferView":3,
			"componentType":5123,
			"count":5376,
			"type":"SCALAR"
		},
		{
			"bufferView":4,
			"componentType":5126,
			"count":280,
			"max":[
				-0.5520812273025513,
				4.021537780761719,
				0.08867714554071426
			],
			"min":[
				-1.0826796293258667,
				3.7599267959594727,
				-0.09597725421190262
			],
			"type":"VEC3"
		},
		{
			"bufferView":5,
			"componentType":5126,
			"count":280,
			"type":"VEC3"
		},
		{
			"bufferView":6,
			"componentType":5126,
			"count":280,
			"type":"VEC2"
		},
		{
			"bufferView":7,
			"componentType":5123,
			"count":1536,
			"type":"SCALAR"
		},
		{
			"bufferView":8,
			"componentType":5126,
			"count":325,
			"max":[
				0.03999999538064003,
				3.8655731678009033,
				0.04000000283122063
			],
			"min":[
				-0.548919677734375,
				0,
				-0.04000003635883331
			],
			"type":"VEC3"
		},
		{
			"bufferView":9,
			"componentType":5126,
			"count":325,
			"type":"VEC3"
		},
		{
			"bufferView":10,
			"componentType":5126,
			"count":325,
			"type":"VEC2"
		},
		{
			"bufferView":11,
			"componentType":5123,
			"count":1728,
			"type":"SCALAR"
		}
	],
	"bufferViews":[
		{
			"buffer":0,
			"byteLength":13056,
			"byteOffset":0,
			"target":34962
		},
		{
			"buffer":0,
			"byteLength":13056,
			"byteOffset":13056,
			"target":34962
		},
		{
			"buffer":0,
			"byteLength":8704,
			"byteOffset":26112,
			"target":34962
		},
		{
			"buffer":0,
			"byteLength":10752,
			"byteOffset":34816,
			"target":34963
		},
		{
			"buffer":0,
			"byteLength":3360,
			"byteOffset":45568,
			"target":34962
		},
		{
			"buffer":0,
			"byteLength":3360,
			"byteOffset":48928,
			"target":34962
		},
		{
			"buffer":0,
			"byteLength":2240,
			"byteOffset":52288,
			"target":34962
		},
		{
			"buffer":0,
			"byteLength":3072,
			"byteOffset":54528,
			"target":34963
		},
		{
			"buffer":0,
			"byteLength":3900,
			"byteOffset":57600,
			"target":34962
		},
		{
			"buffer":0,
			"byteLength":3900,
			"byteOffset":61500,
			"target":34962
		},
		{
			"buffer":0,
			"byteLength":2600,
			"byteOffset":65400,
			"target":34962
		},
		{
			"buffer":0,
			"byteLength":3456,
			"byteOffset":68000,
			"target":34963
		}
	],
	"buffers":[
		{
			"byteLength":71456,
			"uri":"data:application/octet-stream;base64,"
		}
	]
}
