{
	"asset":{
		"generator":"Khronos glTF Blender I/O v3.6.27",
		"version":"2.0"
	},
	"scene":0,
	"scenes":[
		{
			"name":"Scene",
			"nodes":[
				0
			]
		}
	],
	"nodes":[
		{
			"mesh":0,
			"name":"StreetLightBody"
		}
	],
	"materials":[
		{
			"doubleSided":true,
			"name":"StreetLightBody",
			"pbrMetallicRoughness":{
				"baseColorFactor":[
					0.800000011920929,
					0.800000011920929,
					0.800000011920929,
					1
				],
				"metallicFactor":0,
				"roughnessFactor":0.5
			}
		}
	],
	"meshes":[
		{
			"name":"BezierCurve.005",
			"primitives":[
				{
					"attributes":{
						"POSITION":0,
						"NORMAL":1,
						"TEXCOORD_0":2
					},
					"indices":3,
					"material":0
				}
			]
		}
	],
	"accessors":[
		{
			"bufferView":0,
			"componentType":5126,
			"count":325,
			"max":[
				0.03999999538064003,
				3.8655731678009033,
				0.04000000283122063
			],
			"min":[
				-0.548919677734375,
				0,
				-0.04000003635883331
			],
			"type":"VEC3"
		},
		{
			"bufferView":1,
			"componentType":5126,
			"count":325,
			"type":"VEC3"
		},
		{
			"bufferView":2,
			"componentType":5126,
			"count":325,
			"type":"VEC2"
		},
		{
			"bufferView":3,
			"componentType":5123,
			"count":1728,
			"type":"SCALAR"
		}
	],
	"bufferViews":[
		{
			"buffer":0,
			"byteLength":3900,
			"byteOffset":0,
			"target":34962
		},
		{
			"buffer":0,
			"byteLength":3900,
			"byteOffset":3900,
			"target":34962
		},
		{
			"buffer":0,
			"byteLength":2600,
			"byteOffset":7800,
			"target":34962
		},
		{
			"buffer":0,
			"byteLength":3456,
			"byteOffset":10400,
			"target":34963
		}
	],
	"buffers":[
		{
			"byteLength":13856,
			"uri":"data:application/octet-stream;base64,"
		}
	]
}
