{
	"asset":{
		"generator":"Khronos glTF Blender I/O v3.6.27",
		"version":"2.0"
	},
	"scene":0,
	"scenes":[
		{
			"name":"Scene",
			"nodes":[
				6
			]
		}
	],
	"nodes":[
		{
			"name":"Wing.R.001",
			"rotation":[
				2.11758287300673e-22,
				-3.774894707930798e-08,
				3.5527141023169746e-15,
				1
			],
			"translation":[
				0,
				0.4028652012348175,
				3.725290298461914e-09
			]
		},
		{
			"children":[
				0
			],
			"name":"Wing.R",
			"rotation":[
				-0.4999999403953552,
				-0.4999999403953552,
				-0.5,
				0.5000000596046448
			],
			"scale":[
				0.9999999403953552,
				0.9999998211860657,
				1
			],
			"translation":[
				0,
				0.05368061736226082,
				0
			]
		},
		{
			"name":"Wing.L.001",
			"rotation":[
				2.11758287300673e-22,
				3.774894707930798e-08,
				-3.5527141023169746e-15,
				1
			],
			"translation":[
				0,
				0.4028652012348175,
				3.725290298461914e-09
			]
		},
		{
			"children":[
				2
			],
			"name":"Wing.L",
			"rotation":[
				-0.4999999403953552,
				0.4999999403953552,
				0.5,
				0.5000000596046448
			],
			"scale":[
				0.9999999403953552,
				0.9999998211860657,
				1
			],
			"translation":[
				0,
				0.05368061736226082,
				0
			]
		},
		{
			"children":[
				1,
				3
			],
			"name":"Bone",
			"rotation":[
				-2.980232594040899e-08,
				0,
				0,
				1
			],
			"scale":[
				1,
				0.9999999403953552,
				0.9999999403953552
			]
		},
		{
			"mesh":0,
			"name":"ButterFly.001",
			"skin":0
		},
		{
			"children":[
				5,
				4
			],
			"name":"Armature.001"
		}
	],
	"animations":[
		{
			"channels":[
				{
					"sampler":0,
					"target":{
						"node":4,
						"path":"translation"
					}
				},
				{
					"sampler":1,
					"target":{
						"node":4,
						"path":"rotation"
					}
				},
				{
					"sampler":2,
					"target":{
						"node":4,
						"path":"scale"
					}
				},
				{
					"sampler":3,
					"target":{
						"node":1,
						"path":"translation"
					}
				},
				{
					"sampler":4,
					"target":{
						"node":1,
						"path":"rotation"
					}
				},
				{
					"sampler":5,
					"target":{
						"node":1,
						"path":"scale"
					}
				},
				{
					"sampler":6,
					"target":{
						"node":0,
						"path":"translation"
					}
				},
				{
					"sampler":7,
					"target":{
						"node":0,
						"path":"rotation"
					}
				},
				{
					"sampler":8,
					"target":{
						"node":0,
						"path":"scale"
					}
				},
				{
					"sampler":9,
					"target":{
						"node":3,
						"path":"translation"
					}
				},
				{
					"sampler":10,
					"target":{
						"node":3,
						"path":"rotation"
					}
				},
				{
					"sampler":11,
					"target":{
						"node":3,
						"path":"scale"
					}
				},
				{
					"sampler":12,
					"target":{
						"node":2,
						"path":"translation"
					}
				},
				{
					"sampler":13,
					"target":{
						"node":2,
						"path":"rotation"
					}
				},
				{
					"sampler":14,
					"target":{
						"node":2,
						"path":"scale"
					}
				}
			],
			"name":"Fly",
			"samplers":[
				{
					"input":7,
					"interpolation":"STEP",
					"output":8
				},
				{
					"input":7,
					"interpolation":"STEP",
					"output":9
				},
				{
					"input":7,
					"interpolation":"STEP",
					"output":10
				},
				{
					"input":7,
					"interpolation":"STEP",
					"output":11
				},
				{
					"input":12,
					"interpolation":"LINEAR",
					"output":13
				},
				{
					"input":7,
					"interpolation":"STEP",
					"output":14
				},
				{
					"input":7,
					"interpolation":"STEP",
					"output":15
				},
				{
					"input":7,
					"interpolation":"STEP",
					"output":16
				},
				{
					"input":7,
					"interpolation":"STEP",
					"output":17
				},
				{
					"input":7,
					"interpolation":"STEP",
					"output":18
				},
				{
					"input":12,
					"interpolation":"LINEAR",
					"output":19
				},
				{
					"input":7,
					"interpolation":"STEP",
					"output":20
				},
				{
					"input":7,
					"interpolation":"STEP",
					"output":21
				},
				{
					"input":7,
					"interpolation":"STEP",
					"output":22
				},
				{
					"input":7,
					"interpolation":"STEP",
					"output":23
				}
			]
		},
		{
			"channels":[
				{
					"sampler":0,
					"target":{
						"node":4,
						"path":"translation"
					}
				},
				{
					"sampler":1,
					"target":{
						"node":4,
						"path":"rotation"
					}
				},
				{
					"sampler":2,
					"target":{
						"node":4,
						"path":"scale"
					}
				},
				{
					"sampler":3,
					"target":{
						"node":1,
						"path":"translation"
					}
				},
				{
					"sampler":4,
					"target":{
						"node":1,
						"path":"rotation"
					}
				},
				{
					"sampler":5,
					"target":{
						"node":1,
						"path":"scale"
					}
				},
				{
					"sampler":6,
					"target":{
						"node":0,
						"path":"translation"
					}
				},
				{
					"sampler":7,
					"target":{
						"node":0,
						"path":"rotation"
					}
				},
				{
					"sampler":8,
					"target":{
						"node":0,
						"path":"scale"
					}
				},
				{
					"sampler":9,
					"target":{
						"node":3,
						"path":"translation"
					}
				},
				{
					"sampler":10,
					"target":{
						"node":3,
						"path":"rotation"
					}
				},
				{
					"sampler":11,
					"target":{
						"node":3,
						"path":"scale"
					}
				},
				{
					"sampler":12,
					"target":{
						"node":2,
						"path":"translation"
					}
				},
				{
					"sampler":13,
					"target":{
						"node":2,
						"path":"rotation"
					}
				},
				{
					"sampler":14,
					"target":{
						"node":2,
						"path":"scale"
					}
				}
			],
			"name":"ArmatureAction",
			"samplers":[
				{
					"input":7,
					"interpolation":"STEP",
					"output":24
				},
				{
					"input":7,
					"interpolation":"STEP",
					"output":25
				},
				{
					"input":7,
					"interpolation":"STEP",
					"output":26
				},
				{
					"input":7,
					"interpolation":"STEP",
					"output":27
				},
				{
					"input":7,
					"interpolation":"STEP",
					"output":28
				},
				{
					"input":7,
					"interpolation":"STEP",
					"output":29
				},
				{
					"input":7,
					"interpolation":"STEP",
					"output":30
				},
				{
					"input":7,
					"interpolation":"STEP",
					"output":31
				},
				{
					"input":7,
					"interpolation":"STEP",
					"output":32
				},
				{
					"input":7,
					"interpolation":"STEP",
					"output":33
				},
				{
					"input":7,
					"interpolation":"STEP",
					"output":34
				},
				{
					"input":7,
					"interpolation":"STEP",
					"output":35
				},
				{
					"input":7,
					"interpolation":"STEP",
					"output":36
				},
				{
					"input":7,
					"interpolation":"STEP",
					"output":37
				},
				{
					"input":7,
					"interpolation":"STEP",
					"output":38
				}
			]
		}
	],
	"meshes":[
		{
			"name":"BezierCurve.003",
			"primitives":[
				{
					"attributes":{
						"POSITION":0,
						"NORMAL":1,
						"TEXCOORD_0":2,
						"JOINTS_0":3,
						"WEIGHTS_0":4
					},
					"indices":5
				}
			]
		}
	],
	"skins":[
		{
			"inverseBindMatrices":6,
			"joints":[
				4,
				1,
				0,
				3,
				2
			],
			"name":"Armature.001"
		}
	],
	"accessors":[
		{
			"bufferView":0,
			"componentType":5126,
			"count":150,
			"max":[
				0.48260119557380676,
				0.4266287386417389,
				2.7369111421648995e-08
			],
			"min":[
				-0.48260119557380676,
				-0.3166557550430298,
				-2.8747306757281876e-08
			],
			"type":"VEC3"
		},
		{
			"bufferView":1,
			"componentType":5126,
			"count":150,
			"type":"VEC3"
		},
		{
			"bufferView":2,
			"componentType":5126,
			"count":150,
			"type":"VEC2"
		},
		{
			"bufferView":3,
			"componentType":5121,
			"count":150,
			"type":"VEC4"
		},
		{
			"bufferView":4,
			"componentType":5126,
			"count":150,
			"type":"VEC4"
		},
		{
			"bufferView":5,
			"componentType":5123,
			"count":444,
			"type":"SCALAR"
		},
		{
			"bufferView":6,
			"componentType":5126,
			"count":5,
			"type":"MAT4"
		},
		{
			"bufferView":7,
			"componentType":5126,
			"count":2,
			"max":[
				0.6666666666666666
			],
			"min":[
				0.03333333333333333
			],
			"type":"SCALAR"
		},
		{
			"bufferView":8,
			"componentType":5126,
			"count":2,
			"type":"VEC3"
		},
		{
			"bufferView":9,
			"componentType":5126,
			"count":2,
			"type":"VEC4"
		},
		{
			"bufferView":10,
			"componentType":5126,
			"count":2,
			"type":"VEC3"
		},
		{
			"bufferView":11,
			"componentType":5126,
			"count":2,
			"type":"VEC3"
		},
		{
			"bufferView":12,
			"componentType":5126,
			"count":20,
			"max":[
				0.6666666666666666
			],
			"min":[
				0.03333333333333333
			],
			"type":"SCALAR"
		},
		{
			"bufferView":13,
			"componentType":5126,
			"count":20,
			"type":"VEC4"
		},
		{
			"bufferView":14,
			"componentType":5126,
			"count":2,
			"type":"VEC3"
		},
		{
			"bufferView":15,
			"componentType":5126,
			"count":2,
			"type":"VEC3"
		},
		{
			"bufferView":16,
			"componentType":5126,
			"count":2,
			"type":"VEC4"
		},
		{
			"bufferView":17,
			"componentType":5126,
			"count":2,
			"type":"VEC3"
		},
		{
			"bufferView":18,
			"componentType":5126,
			"count":2,
			"type":"VEC3"
		},
		{
			"bufferView":19,
			"componentType":5126,
			"count":20,
			"type":"VEC4"
		},
		{
			"bufferView":20,
			"componentType":5126,
			"count":2,
			"type":"VEC3"
		},
		{
			"bufferView":21,
			"componentType":5126,
			"count":2,
			"type":"VEC3"
		},
		{
			"bufferView":22,
			"componentType":5126,
			"count":2,
			"type":"VEC4"
		},
		{
			"bufferView":23,
			"componentType":5126,
			"count":2,
			"type":"VEC3"
		},
		{
			"bufferView":24,
			"componentType":5126,
			"count":2,
			"type":"VEC3"
		},
		{
			"bufferView":25,
			"componentType":5126,
			"count":2,
			"type":"VEC4"
		},
		{
			"bufferView":26,
			"componentType":5126,
			"count":2,
			"type":"VEC3"
		},
		{
			"bufferView":27,
			"componentType":5126,
			"count":2,
			"type":"VEC3"
		},
		{
			"bufferView":28,
			"componentType":5126,
			"count":2,
			"type":"VEC4"
		},
		{
			"bufferView":29,
			"componentType":5126,
			"count":2,
			"type":"VEC3"
		},
		{
			"bufferView":30,
			"componentType":5126,
			"count":2,
			"type":"VEC3"
		},
		{
			"bufferView":31,
			"componentType":5126,
			"count":2,
			"type":"VEC4"
		},
		{
			"bufferView":32,
			"componentType":5126,
			"count":2,
			"type":"VEC3"
		},
		{
			"bufferView":33,
			"componentType":5126,
			"count":2,
			"type":"VEC3"
		},
		{
			"bufferView":34,
			"componentType":5126,
			"count":2,
			"type":"VEC4"
		},
		{
			"bufferView":35,
			"componentType":5126,
			"count":2,
			"type":"VEC3"
		},
		{
			"bufferView":36,
			"componentType":5126,
			"count":2,
			"type":"VEC3"
		},
		{
			"bufferView":37,
			"componentType":5126,
			"count":2,
			"type":"VEC4"
		},
		{
			"bufferView":38,
			"componentType":5126,
			"count":2,
			"type":"VEC3"
		}
	],
	"bufferViews":[
		{
			"buffer":0,
			"byteLength":1800,
			"byteOffset":0,
			"target":34962
		},
		{
			"buffer":0,
			"byteLength":1800,
			"byteOffset":1800,
			"target":34962
		},
		{
			"buffer":0,
			"byteLength":1200,
			"byteOffset":3600,
			"target":34962
		},
		{
			"buffer":0,
			"byteLength":600,
			"byteOffset":4800,
			"target":34962
		},
		{
			"buffer":0,
			"byteLength":2400,
			"byteOffset":5400,
			"target":34962
		},
		{
			"buffer":0,
			"byteLength":888,
			"byteOffset":7800,
			"target":34963
		},
		{
			"buffer":0,
			"byteLength":320,
			"byteOffset":8688
		},
		{
			"buffer":0,
			"byteLength":8,
			"byteOffset":9008
		},
		{
			"buffer":0,
			"byteLength":24,
			"byteOffset":9016
		},
		{
			"buffer":0,
			"byteLength":32,
			"byteOffset":9040
		},
		{
			"buffer":0,
			"byteLength":24,
			"byteOffset":9072
		},
		{
			"buffer":0,
			"byteLength":24,
			"byteOffset":9096
		},
		{
			"buffer":0,
			"byteLength":80,
			"byteOffset":9120
		},
		{
			"buffer":0,
			"byteLength":320,
			"byteOffset":9200
		},
		{
			"buffer":0,
			"byteLength":24,
			"byteOffset":9520
		},
		{
			"buffer":0,
			"byteLength":24,
			"byteOffset":9544
		},
		{
			"buffer":0,
			"byteLength":32,
			"byteOffset":9568
		},
		{
			"buffer":0,
			"byteLength":24,
			"byteOffset":9600
		},
		{
			"buffer":0,
			"byteLength":24,
			"byteOffset":9624
		},
		{
			"buffer":0,
			"byteLength":320,
			"byteOffset":9648
		},
		{
			"buffer":0,
			"byteLength":24,
			"byteOffset":9968
		},
		{
			"buffer":0,
			"byteLength":24,
			"byteOffset":9992
		},
		{
			"buffer":0,
			"byteLength":32,
			"byteOffset":10016
		},
		{
			"buffer":0,
			"byteLength":24,
			"byteOffset":10048
		},
		{
			"buffer":0,
			"byteLength":24,
			"byteOffset":10072
		},
		{
			"buffer":0,
			"byteLength":32,
			"byteOffset":10096
		},
		{
			"buffer":0,
			"byteLength":24,
			"byteOffset":10128
		},
		{
			"buffer":0,
			"byteLength":24,
			"byteOffset":10152
		},
		{
			"buffer":0,
			"byteLength":32,
			"byteOffset":10176
		},
		{
			"buffer":0,
			"byteLength":24,
			"byteOffset":10208
		},
		{
			"buffer":0,
			"byteLength":24,
			"byteOffset":10232
		},
		{
			"buffer":0,
			"byteLength":32,
			"byteOffset":10256
		},
		{
			"buffer":0,
			"byteLength":24,
			"byteOffset":10288
		},
		{
			"buffer":0,
			"byteLength":24,
			"byteOffset":10312
		},
		{
			"buffer":0,
			"byteLength":32,
			"byteOffset":10336
		},
		{
			"buffer":0,
			"byteLength":24,
			"byteOffset":10368
		},
		{
			"buffer":0,
			"byteLength":24,
			"byteOffset":10392
		},
		{
			"buffer":0,
			"byteLength":32,
			"byteOffset":10416
		},
		{
			"buffer":0,
			"byteLength":24,
			"byteOffset":10448
		}
	],
	"buffers":[
		{
			"byteLength":10472,
			"uri":"data:application/octet-stream;base64,"
		}
	]
}
