{
	"asset":{
		"generator":"Khronos glTF Blender I/O v3.6.27",
		"version":"2.0"
	},
	"scene":0,
	"scenes":[
		{
			"name":"Scene",
			"nodes":[
				6
			]
		}
	],
	"nodes":[
		{
			"name":"Wing.R.001",
			"rotation":[
				-1.1579576490857339e-17,
				-2.2351738238057806e-08,
				1.4210854715202004e-14,
				1
			],
			"scale":[
				1,
				0.9999999403953552,
				1
			],
			"translation":[
				-3.725347141880775e-09,
				0.40286505222320557,
				1.064962222048366e-29
			]
		},
		{
			"children":[
				0
			],
			"name":"Wing.R",
			"rotation":[
				8.984137677960753e-22,
				-8.984142726670547e-22,
				-0.7071065902709961,
				0.7071069478988647
			],
			"translation":[
				8.881779432440924e-16,
				0.053680602461099625,
				1.8057640514476327e-36
			]
		},
		{
			"name":"Wing.L.001",
			"rotation":[
				1.1580105886449373e-17,
				2.2351738238057806e-08,
				-1.439342123203788e-15,
				1
			],
			"scale":[
				1,
				0.9999999403953552,
				1
			],
			"translation":[
				3.725295627532432e-09,
				0.40286505222320557,
				1.9108911398605558e-31
			]
		},
		{
			"children":[
				2
			],
			"name":"Wing.L",
			"rotation":[
				-8.98414070718663e-22,
				-8.984141716928588e-22,
				0.7071067690849304,
				0.7071067690849304
			],
			"translation":[
				7.099748146989106e-30,
				0.053680602461099625,
				4.203895392974451e-45
			]
		},
		{
			"children":[
				1,
				3
			],
			"name":"Bone",
			"rotation":[
				2.3335346885876556e-15,
				0.7071067690849304,
				0.7071067690849304,
				2.3335346885876556e-15
			]
		},
		{
			"mesh":0,
			"name":"ButterFly.003",
			"skin":0
		},
		{
			"children":[
				5,
				4
			],
			"name":"Armature.003"
		}
	],
	"animations":[
		{
			"channels":[
				{
					"sampler":0,
					"target":{
						"node":4,
						"path":"translation"
					}
				},
				{
					"sampler":1,
					"target":{
						"node":4,
						"path":"rotation"
					}
				},
				{
					"sampler":2,
					"target":{
						"node":4,
						"path":"scale"
					}
				},
				{
					"sampler":3,
					"target":{
						"node":1,
						"path":"translation"
					}
				},
				{
					"sampler":4,
					"target":{
						"node":1,
						"path":"rotation"
					}
				},
				{
					"sampler":5,
					"target":{
						"node":1,
						"path":"scale"
					}
				},
				{
					"sampler":6,
					"target":{
						"node":0,
						"path":"translation"
					}
				},
				{
					"sampler":7,
					"target":{
						"node":0,
						"path":"rotation"
					}
				},
				{
					"sampler":8,
					"target":{
						"node":0,
						"path":"scale"
					}
				},
				{
					"sampler":9,
					"target":{
						"node":3,
						"path":"translation"
					}
				},
				{
					"sampler":10,
					"target":{
						"node":3,
						"path":"rotation"
					}
				},
				{
					"sampler":11,
					"target":{
						"node":3,
						"path":"scale"
					}
				},
				{
					"sampler":12,
					"target":{
						"node":2,
						"path":"translation"
					}
				},
				{
					"sampler":13,
					"target":{
						"node":2,
						"path":"rotation"
					}
				},
				{
					"sampler":14,
					"target":{
						"node":2,
						"path":"scale"
					}
				}
			],
			"name":"Fly",
			"samplers":[
				{
					"input":7,
					"interpolation":"STEP",
					"output":8
				},
				{
					"input":7,
					"interpolation":"STEP",
					"output":9
				},
				{
					"input":7,
					"interpolation":"STEP",
					"output":10
				},
				{
					"input":7,
					"interpolation":"STEP",
					"output":11
				},
				{
					"input":12,
					"interpolation":"LINEAR",
					"output":13
				},
				{
					"input":7,
					"interpolation":"STEP",
					"output":14
				},
				{
					"input":7,
					"interpolation":"STEP",
					"output":15
				},
				{
					"input":7,
					"interpolation":"STEP",
					"output":16
				},
				{
					"input":7,
					"interpolation":"STEP",
					"output":17
				},
				{
					"input":7,
					"interpolation":"STEP",
					"output":18
				},
				{
					"input":12,
					"interpolation":"LINEAR",
					"output":19
				},
				{
					"input":7,
					"interpolation":"STEP",
					"output":20
				},
				{
					"input":7,
					"interpolation":"STEP",
					"output":21
				},
				{
					"input":7,
					"interpolation":"STEP",
					"output":22
				},
				{
					"input":7,
					"interpolation":"STEP",
					"output":23
				}
			]
		}
	],
	"meshes":[
		{
			"name":"BezierCurve.007",
			"primitives":[
				{
					"attributes":{
						"POSITION":0,
						"NORMAL":1,
						"TEXCOORD_0":2,
						"JOINTS_0":3,
						"WEIGHTS_0":4
					},
					"indices":5
				}
			]
		}
	],
	"skins":[
		{
			"inverseBindMatrices":6,
			"joints":[
				4,
				1,
				0,
				3,
				2
			],
			"name":"Armature.003"
		}
	],
	"accessors":[
		{
			"bufferView":0,
			"componentType":5126,
			"count":906,
			"max":[
				0.4826012849807739,
				0.019215822219848633,
				0.42662888765335083
			],
			"min":[
				-0.4826011061668396,
				-0.00640527717769146,
				-0.3166557848453522
			],
			"type":"VEC3"
		},
		{
			"bufferView":1,
			"componentType":5126,
			"count":906,
			"type":"VEC3"
		},
		{
			"bufferView":2,
			"componentType":5126,
			"count":906,
			"type":"VEC2"
		},
		{
			"bufferView":3,
			"componentType":5121,
			"count":906,
			"type":"VEC4"
		},
		{
			"bufferView":4,
			"componentType":5126,
			"count":906,
			"type":"VEC4"
		},
		{
			"bufferView":5,
			"componentType":5123,
			"count":1788,
			"type":"SCALAR"
		},
		{
			"bufferView":6,
			"componentType":5126,
			"count":5,
			"type":"MAT4"
		},
		{
			"bufferView":7,
			"componentType":5126,
			"count":2,
			"max":[
				0.6666666666666666
			],
			"min":[
				0
			],
			"type":"SCALAR"
		},
		{
			"bufferView":8,
			"componentType":5126,
			"count":2,
			"type":"VEC3"
		},
		{
			"bufferView":9,
			"componentType":5126,
			"count":2,
			"type":"VEC4"
		},
		{
			"bufferView":10,
			"componentType":5126,
			"count":2,
			"type":"VEC3"
		},
		{
			"bufferView":11,
			"componentType":5126,
			"count":2,
			"type":"VEC3"
		},
		{
			"bufferView":12,
			"componentType":5126,
			"count":17,
			"max":[
				0.6666666666666666
			],
			"min":[
				0
			],
			"type":"SCALAR"
		},
		{
			"bufferView":13,
			"componentType":5126,
			"count":17,
			"type":"VEC4"
		},
		{
			"bufferView":14,
			"componentType":5126,
			"count":2,
			"type":"VEC3"
		},
		{
			"bufferView":15,
			"componentType":5126,
			"count":2,
			"type":"VEC3"
		},
		{
			"bufferView":16,
			"componentType":5126,
			"count":2,
			"type":"VEC4"
		},
		{
			"bufferView":17,
			"componentType":5126,
			"count":2,
			"type":"VEC3"
		},
		{
			"bufferView":18,
			"componentType":5126,
			"count":2,
			"type":"VEC3"
		},
		{
			"bufferView":19,
			"componentType":5126,
			"count":17,
			"type":"VEC4"
		},
		{
			"bufferView":20,
			"componentType":5126,
			"count":2,
			"type":"VEC3"
		},
		{
			"bufferView":21,
			"componentType":5126,
			"count":2,
			"type":"VEC3"
		},
		{
			"bufferView":22,
			"componentType":5126,
			"count":2,
			"type":"VEC4"
		},
		{
			"bufferView":23,
			"componentType":5126,
			"count":2,
			"type":"VEC3"
		}
	],
	"bufferViews":[
		{
			"buffer":0,
			"byteLength":10872,
			"byteOffset":0,
			"target":34962
		},
		{
			"buffer":0,
			"byteLength":10872,
			"byteOffset":10872,
			"target":34962
		},
		{
			"buffer":0,
			"byteLength":7248,
			"byteOffset":21744,
			"target":34962
		},
		{
			"buffer":0,
			"byteLength":3624,
			"byteOffset":28992,
			"target":34962
		},
		{
			"buffer":0,
			"byteLength":14496,
			"byteOffset":32616,
			"target":34962
		},
		{
			"buffer":0,
			"byteLength":3576,
			"byteOffset":47112,
			"target":34963
		},
		{
			"buffer":0,
			"byteLength":320,
			"byteOffset":50688
		},
		{
			"buffer":0,
			"byteLength":8,
			"byteOffset":51008
		},
		{
			"buffer":0,
			"byteLength":24,
			"byteOffset":51016
		},
		{
			"buffer":0,
			"byteLength":32,
			"byteOffset":51040
		},
		{
			"buffer":0,
			"byteLength":24,
			"byteOffset":51072
		},
		{
			"buffer":0,
			"byteLength":24,
			"byteOffset":51096
		},
		{
			"buffer":0,
			"byteLength":68,
			"byteOffset":51120
		},
		{
			"buffer":0,
			"byteLength":272,
			"byteOffset":51188
		},
		{
			"buffer":0,
			"byteLength":24,
			"byteOffset":51460
		},
		{
			"buffer":0,
			"byteLength":24,
			"byteOffset":51484
		},
		{
			"buffer":0,
			"byteLength":32,
			"byteOffset":51508
		},
		{
			"buffer":0,
			"byteLength":24,
			"byteOffset":51540
		},
		{
			"buffer":0,
			"byteLength":24,
			"byteOffset":51564
		},
		{
			"buffer":0,
			"byteLength":272,
			"byteOffset":51588
		},
		{
			"buffer":0,
			"byteLength":24,
			"byteOffset":51860
		},
		{
			"buffer":0,
			"byteLength":24,
			"byteOffset":51884
		},
		{
			"buffer":0,
			"byteLength":32,
			"byteOffset":51908
		},
		{
			"buffer":0,
			"byteLength":24,
			"byteOffset":51940
		}
	],
	"buffers":[
		{
			"byteLength":51964,
			"uri":"data:application/octet-stream;base64,"
		}
	]
}
