{
	"asset":{
		"generator":"Khronos glTF Blender I/O v3.6.27",
		"version":"2.0"
	},
	"extensionsUsed":[
		"KHR_materials_emissive_strength"
	],
	"scene":0,
	"scenes":[
		{
			"name":"Scene",
			"nodes":[
				0,
				1,
				2,
				3
			]
		}
	],
	"nodes":[
		{
			"mesh":0,
			"name":"Cover_Top.001"
		},
		{
			"mesh":1,
			"name":"Cover_Middle.001"
		},
		{
			"mesh":2,
			"name":"Cover_Bottom.001"
		},
		{
			"mesh":3,
			"name":"StreetLight_Curve.005"
		}
	],
	"materials":[
		{
			"doubleSided":true,
			"name":"StreetLightCover",
			"pbrMetallicRoughness":{
				"baseColorFactor":[
					0.0030954722315073013,
					0.001548866624943912,
					0.001548866624943912,
					1
				],
				"roughnessFactor":0.359375
			}
		},
		{
			"doubleSided":true,
			"name":"StreetLightCoverMiddle",
			"pbrMetallicRoughness":{
				"baseColorFactor":[
					0.05496902018785477,
					0.05496902018785477,
					0.05496902018785477,
					1
				],
				"roughnessFactor":0.3203125
			}
		},
		{
			"doubleSided":true,
			"emissiveFactor":[
				1,
				1,
				1
			],
			"extensions":{
				"KHR_materials_emissive_strength":{
					"emissiveStrength":3
				}
			},
			"name":"StreetLightBulb",
			"pbrMetallicRoughness":{
				"baseColorFactor":[
					1,
					0.9576399922370911,
					0.9893096089363098,
					1
				],
				"metallicFactor":0,
				"roughnessFactor":0
			}
		},
		{
			"doubleSided":true,
			"name":"StreetLightBody",
			"pbrMetallicRoughness":{
				"baseColorFactor":[
					0.08001182228326797,
					0.07236719131469727,
					0.07659891992807388,
					1
				],
				"roughnessFactor":0.3046875
			}
		}
	],
	"meshes":[
		{
			"name":"Cover_Top.001",
			"primitives":[
				{
					"attributes":{
						"POSITION":0,
						"NORMAL":1,
						"TEXCOORD_0":2,
						"TANGENT":3
					},
					"indices":4,
					"material":0
				}
			]
		},
		{
			"name":"Cover_Middle.001",
			"primitives":[
				{
					"attributes":{
						"POSITION":5,
						"NORMAL":6,
						"TEXCOORD_0":7,
						"TANGENT":8
					},
					"indices":9,
					"material":1
				}
			]
		},
		{
			"name":"Cover_Bottom.001",
			"primitives":[
				{
					"attributes":{
						"POSITION":10,
						"NORMAL":11,
						"TEXCOORD_0":12,
						"TANGENT":13
					},
					"indices":14,
					"material":2
				}
			]
		},
		{
			"name":"BezierCurve.009",
			"primitives":[
				{
					"attributes":{
						"POSITION":15,
						"NORMAL":16,
						"TEXCOORD_0":17,
						"TANGENT":18
					},
					"indices":19,
					"material":3
				}
			]
		}
	],
	"accessors":[
		{
			"bufferView":0,
			"componentType":5126,
			"count":966,
			"max":[
				-1.2596940994262695,
				4.490266799926758,
				0.08813387155532837
			],
			"min":[
				-1.5966070890426636,
				4.358497619628906,
				-0.0881335586309433
			],
			"type":"VEC3"
		},
		{
			"bufferView":1,
			"componentType":5126,
			"count":966,
			"type":"VEC3"
		},
		{
			"bufferView":2,
			"componentType":5126,
			"count":966,
			"type":"VEC2"
		},
		{
			"bufferView":3,
			"componentType":5126,
			"count":966,
			"type":"VEC4"
		},
		{
			"bufferView":4,
			"componentType":5123,
			"count":4848,
			"type":"SCALAR"
		},
		{
			"bufferView":5,
			"componentType":5126,
			"count":952,
			"max":[
				-1.2823539972305298,
				4.427952289581299,
				0.08428358286619186
			],
			"min":[
				-1.5852599143981934,
				4.356687545776367,
				-0.0842832624912262
			],
			"type":"VEC3"
		},
		{
			"bufferView":6,
			"componentType":5126,
			"count":952,
			"type":"VEC3"
		},
		{
			"bufferView":7,
			"componentType":5126,
			"count":952,
			"type":"VEC2"
		},
		{
			"bufferView":8,
			"componentType":5126,
			"count":952,
			"type":"VEC4"
		},
		{
			"bufferView":9,
			"componentType":5123,
			"count":4704,
			"type":"SCALAR"
		},
		{
			"bufferView":10,
			"componentType":5126,
			"count":1969,
			"max":[
				-1.2826213836669922,
				4.422883987426758,
				0.07714197784662247
			],
			"min":[
				-1.580208659172058,
				4.321637153625488,
				-0.0771416649222374
			],
			"type":"VEC3"
		},
		{
			"bufferView":11,
			"componentType":5126,
			"count":1969,
			"type":"VEC3"
		},
		{
			"bufferView":12,
			"componentType":5126,
			"count":1969,
			"type":"VEC2"
		},
		{
			"bufferView":13,
			"componentType":5126,
			"count":1969,
			"type":"VEC4"
		},
		{
			"bufferView":14,
			"componentType":5123,
			"count":8064,
			"type":"SCALAR"
		},
		{
			"bufferView":15,
			"componentType":5126,
			"count":338,
			"max":[
				0.03558184951543808,
				4.409116744995117,
				0.025000181049108505
			],
			"min":[
				-1.2811225652694702,
				0,
				-0.02500000223517418
			],
			"type":"VEC3"
		},
		{
			"bufferView":16,
			"componentType":5126,
			"count":338,
			"type":"VEC3"
		},
		{
			"bufferView":17,
			"componentType":5126,
			"count":338,
			"type":"VEC2"
		},
		{
			"bufferView":18,
			"componentType":5126,
			"count":338,
			"type":"VEC4"
		},
		{
			"bufferView":19,
			"componentType":5123,
			"count":1800,
			"type":"SCALAR"
		}
	],
	"bufferViews":[
		{
			"buffer":0,
			"byteLength":11592,
			"byteOffset":0,
			"target":34962
		},
		{
			"buffer":0,
			"byteLength":11592,
			"byteOffset":11592,
			"target":34962
		},
		{
			"buffer":0,
			"byteLength":7728,
			"byteOffset":23184,
			"target":34962
		},
		{
			"buffer":0,
			"byteLength":15456,
			"byteOffset":30912,
			"target":34962
		},
		{
			"buffer":0,
			"byteLength":9696,
			"byteOffset":46368,
			"target":34963
		},
		{
			"buffer":0,
			"byteLength":11424,
			"byteOffset":56064,
			"target":34962
		},
		{
			"buffer":0,
			"byteLength":11424,
			"byteOffset":67488,
			"target":34962
		},
		{
			"buffer":0,
			"byteLength":7616,
			"byteOffset":78912,
			"target":34962
		},
		{
			"buffer":0,
			"byteLength":15232,
			"byteOffset":86528,
			"target":34962
		},
		{
			"buffer":0,
			"byteLength":9408,
			"byteOffset":101760,
			"target":34963
		},
		{
			"buffer":0,
			"byteLength":23628,
			"byteOffset":111168,
			"target":34962
		},
		{
			"buffer":0,
			"byteLength":23628,
			"byteOffset":134796,
			"target":34962
		},
		{
			"buffer":0,
			"byteLength":15752,
			"byteOffset":158424,
			"target":34962
		},
		{
			"buffer":0,
			"byteLength":31504,
			"byteOffset":174176,
			"target":34962
		},
		{
			"buffer":0,
			"byteLength":16128,
			"byteOffset":205680,
			"target":34963
		},
		{
			"buffer":0,
			"byteLength":4056,
			"byteOffset":221808,
			"target":34962
		},
		{
			"buffer":0,
			"byteLength":4056,
			"byteOffset":225864,
			"target":34962
		},
		{
			"buffer":0,
			"byteLength":2704,
			"byteOffset":229920,
			"target":34962
		},
		{
			"buffer":0,
			"byteLength":5408,
			"byteOffset":232624,
			"target":34962
		},
		{
			"buffer":0,
			"byteLength":3600,
			"byteOffset":238032,
			"target":34963
		}
	],
	"buffers":[
		{
			"byteLength":241632,
			"uri":"street-light-full.bin"
		}
	]
}
