{
	"asset":{
		"generator":"Khronos glTF Blender I/O v3.6.27",
		"version":"2.0"
	},
	"scene":0,
	"scenes":[
		{
			"name":"Scene",
			"nodes":[
				0,
				1,
				2
			]
		}
	],
	"nodes":[
		{
			"mesh":0,
			"name":"StreetLightBulb.002"
		},
		{
			"mesh":1,
			"name":"StreetLightCover.002"
		},
		{
			"mesh":2,
			"name":"StreetLightBody.005"
		}
	],
	"materials":[
		{
			"doubleSided":true,
			"name":"StreetLightBulb",
			"pbrMetallicRoughness":{
				"baseColorFactor":[
					0.7805631160736084,
					0.8000000715255737,
					0.06568038463592529,
					1
				],
				"metallicFactor":0,
				"roughnessFactor":0.5
			}
		},
		{
			"doubleSided":true,
			"name":"StreetLightCover",
			"pbrMetallicRoughness":{
				"baseColorFactor":[
					0.8000000715255737,
					0.178208127617836,
					0.178208127617836,
					1
				],
				"metallicFactor":0,
				"roughnessFactor":0.5
			}
		},
		{
			"doubleSided":true,
			"name":"StreetLightBody",
			"pbrMetallicRoughness":{
				"baseColorFactor":[
					0.13047845661640167,
					0.09361818432807922,
					0.8000000715255737,
					1
				],
				"metallicFactor":0,
				"roughnessFactor":0.5
			}
		}
	],
	"meshes":[
		{
			"name":"Cube.014",
			"primitives":[
				{
					"attributes":{
						"POSITION":0,
						"NORMAL":1,
						"TEXCOORD_0":2
					},
					"indices":3,
					"material":0
				}
			]
		},
		{
			"name":"Cube.015",
			"primitives":[
				{
					"attributes":{
						"POSITION":4,
						"NORMAL":5,
						"TEXCOORD_0":6
					},
					"indices":7,
					"material":1
				}
			]
		},
		{
			"name":"BezierCurve.008",
			"primitives":[
				{
					"attributes":{
						"POSITION":8,
						"NORMAL":9,
						"TEXCOORD_0":10
					},
					"indices":11,
					"material":2
				}
			]
		}
	],
	"accessors":[
		{
			"bufferView":0,
			"componentType":5126,
			"count":258,
			"max":[
				-0.6675422787666321,
				4.104556083679199,
				0.13804811239242554
			],
			"min":[
				-1.0393952131271362,
				3.8093111515045166,
				-0.1338730752468109
			],
			"type":"VEC3"
		},
		{
			"bufferView":1,
			"componentType":5126,
			"count":258,
			"type":"VEC3"
		},
		{
			"bufferView":2,
			"componentType":5126,
			"count":258,
			"type":"VEC2"
		},
		{
			"bufferView":3,
			"componentType":5123,
			"count":1536,
			"type":"SCALAR"
		},
		{
			"bufferView":4,
			"componentType":5126,
			"count":1480,
			"max":[
				-0.6449468731880188,
				4.118534088134766,
				0.1625177562236786
			],
			"min":[
				-1.0547901391983032,
				3.850886583328247,
				-0.16246604919433594
			],
			"type":"VEC3"
		},
		{
			"bufferView":5,
			"componentType":5126,
			"count":1480,
			"type":"VEC3"
		},
		{
			"bufferView":6,
			"componentType":5126,
			"count":1480,
			"type":"VEC2"
		},
		{
			"bufferView":7,
			"componentType":5123,
			"count":7680,
			"type":"SCALAR"
		},
		{
			"bufferView":8,
			"componentType":5126,
			"count":325,
			"max":[
				0.052000001072883606,
				3.954090118408203,
				0.05200020596385002
			],
			"min":[
				-0.6920655965805054,
				0,
				-0.052000001072883606
			],
			"type":"VEC3"
		},
		{
			"bufferView":9,
			"componentType":5126,
			"count":325,
			"type":"VEC3"
		},
		{
			"bufferView":10,
			"componentType":5126,
			"count":325,
			"type":"VEC2"
		},
		{
			"bufferView":11,
			"componentType":5123,
			"count":1728,
			"type":"SCALAR"
		}
	],
	"bufferViews":[
		{
			"buffer":0,
			"byteLength":3096,
			"byteOffset":0,
			"target":34962
		},
		{
			"buffer":0,
			"byteLength":3096,
			"byteOffset":3096,
			"target":34962
		},
		{
			"buffer":0,
			"byteLength":2064,
			"byteOffset":6192,
			"target":34962
		},
		{
			"buffer":0,
			"byteLength":3072,
			"byteOffset":8256,
			"target":34963
		},
		{
			"buffer":0,
			"byteLength":17760,
			"byteOffset":11328,
			"target":34962
		},
		{
			"buffer":0,
			"byteLength":17760,
			"byteOffset":29088,
			"target":34962
		},
		{
			"buffer":0,
			"byteLength":11840,
			"byteOffset":46848,
			"target":34962
		},
		{
			"buffer":0,
			"byteLength":15360,
			"byteOffset":58688,
			"target":34963
		},
		{
			"buffer":0,
			"byteLength":3900,
			"byteOffset":74048,
			"target":34962
		},
		{
			"buffer":0,
			"byteLength":3900,
			"byteOffset":77948,
			"target":34962
		},
		{
			"buffer":0,
			"byteLength":2600,
			"byteOffset":81848,
			"target":34962
		},
		{
			"buffer":0,
			"byteLength":3456,
			"byteOffset":84448,
			"target":34963
		}
	],
	"buffers":[
		{
			"byteLength":87904,
			"uri":"data:application/octet-stream;base64,"
		}
	]
}
