# Blender 3.3.1
# www.blender.org
mtllib skybox-cube.mtl
o Cube
v -1.000000 -1.000000 1.000000
v -1.000000 1.000000 1.000000
v -1.000000 -1.000000 -1.000000
v -1.000000 1.000000 -1.000000
v 1.000000 -1.000000 1.000000
v 1.000000 1.000000 1.000000
v 1.000000 -1.000000 -1.000000
v 1.000000 1.000000 -1.000000
vn 0.5774 0.5774 0.5774
vn 0.5774 -0.5774 -0.5774
vn 0.5774 0.5774 -0.5774
vn -0.5774 0.5774 0.5774
vn 0.5774 -0.5774 0.5774
vn -0.5774 0.5774 -0.5774
vn -0.5774 -0.5774 0.5774
vn -0.5774 -0.5774 -0.5774
vt 0.375000 0.000000
vt 0.375000 1.000000
vt 0.125000 0.750000
vt 0.625000 0.000000
vt 0.625000 1.000000
vt 0.875000 0.750000
vt 0.125000 0.500000
vt 0.375000 0.250000
vt 0.625000 0.250000
vt 0.875000 0.500000
vt 0.375000 0.750000
vt 0.625000 0.750000
vt 0.375000 0.500000
vt 0.625000 0.500000
s 1
f 3/8/1 2/4/2 1/1/3
f 7/13/4 4/9/5 3/8/1
f 5/11/6 8/14/7 7/13/4
f 1/2/3 6/12/8 5/11/6
f 1/3/3 7/13/4 3/7/1
f 6/12/8 4/10/5 8/14/7
f 3/8/1 4/9/5 2/4/2
f 7/13/4 8/14/7 4/9/5
f 5/11/6 6/12/8 8/14/7
f 1/2/3 2/5/2 6/12/8
f 1/3/3 5/11/6 7/13/4
f 6/12/8 2/6/2 4/10/5
